# Blender v2.76 (sub 0) OBJ File: ''
# www.blender.org
mtllib arrow.mtl
o Box01
v -1.476251 -0.896522 3.060295
v 1.531755 -0.896522 3.060295
v -1.476251 -0.896522 -1.534948
v 1.529220 -0.896522 -1.531450
v -2.501043 -0.896522 -1.538819
v -0.001239 -0.896522 -4.544877
v 2.550907 -0.896522 -1.538819
v -1.476251 0.811465 3.060295
v 1.531755 0.811465 3.060295
v -1.476251 0.811465 -1.534948
v 1.529220 0.811465 -1.531450
v -2.501043 0.811465 -1.538819
v -0.001239 0.811465 -4.544877
v 2.550907 0.811465 -1.538819
v -1.476251 -0.896522 3.060295
v 1.531755 0.811465 3.060295
v 1.531755 0.811465 3.060295
v -1.476251 0.811465 3.060295
v -1.476251 -0.896522 3.060295
v 1.531755 -0.896522 3.060295
v 1.529220 -0.896522 -1.531450
v 1.529220 0.811465 -1.531450
v 1.529220 0.811465 -1.531450
v 1.531755 0.811465 3.060295
v 1.531755 -0.896522 3.060295
v 1.529220 -0.896522 -1.531450
v 2.550907 -0.896522 -1.538819
v 1.529220 0.811465 -1.531450
v 1.529220 -0.896522 -1.531450
v 2.550907 -0.896522 -1.538819
v -0.001239 -0.896522 -4.544877
v 2.550907 0.811465 -1.538819
v 2.550907 -0.896522 -1.538819
v -0.001239 -0.896522 -4.544877
v -2.501043 -0.896522 -1.538819
v -2.501043 0.811465 -1.538819
v -2.501043 0.811465 -1.538819
v -0.001239 -0.896522 -4.544877
v -2.501043 -0.896522 -1.538819
v -1.476251 -0.896522 -1.534948
v -1.476251 0.811465 -1.534948
v -1.476251 0.811465 -1.534948
v -2.501043 -0.896522 -1.538819
v -1.476251 -0.896522 -1.534948
v -1.476251 0.811465 3.060295
v -1.476251 0.811465 3.060295
v -1.476251 0.811465 -1.534948
v -1.476251 -0.896522 -1.534948
vt 1.000000 0.000000
vt 1.000000 0.500000
vt 0.500000 0.500000
vt 0.500000 0.000000
vt 1.000000 1.000000
vt 0.500000 1.000000
vt 0.000000 1.000000
vt 0.000000 0.000000
vt 0.000000 0.500000
vn 0.000000 -1.000000 0.000000
vn 0.000000 1.000000 -0.000000
vn 0.000000 0.000000 1.000000
vn 1.000000 0.000000 -0.000600
vn 0.007200 0.000000 1.000000
vn 0.762300 0.000000 -0.647200
vn -0.768900 0.000000 -0.639400
vn -0.003800 0.000000 1.000000
vn -1.000000 0.000000 0.000000
usemtl Material_#20
s off
f 1/1/1 3/2/1 4/3/1
f 1/1/1 4/3/1 2/4/1
f 3/2/1 5/5/1 6/6/1
f 6/6/1 4/3/1 3/2/1
f 4/3/1 6/6/1 7/7/1
f 8/8/2 9/4/2 11/3/2
f 11/3/2 10/9/2 8/8/2
f 10/9/2 11/3/2 13/6/2
f 13/6/2 12/7/2 10/9/2
f 14/5/2 13/6/2 11/3/2
f 15/8/3 2/4/3 16/6/3
f 17/6/3 18/7/3 19/8/3
f 20/8/4 21/4/4 22/6/4
f 23/6/4 24/7/4 25/8/4
f 26/4/5 27/1/5 14/5/5
f 14/5/5 28/6/5 29/4/5
f 30/8/6 31/4/6 13/6/6
f 13/6/6 32/7/6 33/8/6
f 34/4/7 35/1/7 36/5/7
f 37/5/7 13/6/7 38/4/7
f 39/8/8 40/4/8 41/6/8
f 42/6/8 12/7/8 43/8/8
f 44/4/9 1/1/9 45/5/9
f 46/5/9 47/6/9 48/4/9
